<svg xmlns="http://www.w3.org/2000/svg" xmlns:xlink="http://www.w3.org/1999/xlink" width="640" height="640"><defs><path d="M533.47 482.53c0-28.01-22.79-50.81-50.8-50.81H448.7c-28.02 0-50.8 22.8-50.8 50.81h135.57z" id="a"/><path d="M484.06 17.14c65.84 0 119.21 53.37 119.21 119.21v273.58c0 65.84-53.37 119.21-119.21 119.21H147.97c-65.84 0-119.21-53.37-119.21-119.21V136.35c0-65.84 53.37-119.21 119.21-119.21h336.09z" id="b"/><path d="M510.28 373.75c0-24.59-20-44.6-44.59-44.6-24.59 0-44.6 20.01-44.6 44.6s20.01 44.6 44.6 44.6 44.59-20.01 44.59-44.6z" id="c"/><path d="M295.31 431.73c-28.02 0-50.81 22.79-50.81 50.81h135.58c0-28.02-22.8-50.81-50.81-50.81h-33.96z" id="d"/><path d="M356.89 373.75c0-24.59-20.01-44.6-44.6-44.6s-44.6 20.01-44.6 44.6 20.01 44.6 44.6 44.6 44.6-20.01 44.6-44.6z" id="e"/><path d="M141.91 431.73c-28.02 0-50.8 22.79-50.8 50.81H226.69c-.01-28.02-22.8-50.81-50.82-50.81h-33.96z" id="f"/><path d="M203.49 373.75c0-24.59-20-44.6-44.6-44.6-24.59 0-44.6 20.01-44.6 44.6s20.01 44.6 44.6 44.6c24.6 0 44.6-20.01 44.6-44.6z" id="g"/><path d="M106.6 294.3c2.67-2.71 5.37-2.71 11.89-1.99 6.96.76 16.46 1.79 24.65-6.56 8.19-8.34 6.99-17.83 6.11-24.76-.82-6.51-.88-9.22 1.8-11.94 2.67-2.71 5.38-2.71 11.9-2.01 6.94.75 16.46 1.78 24.66-6.57 8.19-8.34 7-17.84 6.13-24.77-.82-6.51-.88-9.22 1.79-11.94-1.11-1.09-9.97-9.8-11.08-10.88-5.73 5.83-6.84 12.22-6.71 17.91.06 2.44.32 4.77.58 6.86.82 6.5.89 9.22-1.79 11.94-2.67 2.72-5.39 2.71-11.91 2.01-2.09-.23-4.43-.44-6.87-.46-5.7-.03-12.06 1.2-17.79 7.03-5.73 5.84-6.83 12.22-6.7 17.91.05 2.44.32 4.77.58 6.86.83 6.5.88 9.21-1.78 11.93-2.67 2.71-5.4 2.7-11.89 1.99-2.09-.23-4.43-.45-6.87-.46-5.69-.03-12.05 1.19-17.78 7.01 2.22 2.18 8.87 8.71 11.08 10.89z" id="h"/><path d="M309.16 175.68c4.54 1.08 7.05 1.68 7.56 1.8 1.9-7.96-.45-14-3.5-18.81-1.31-2.06-2.74-3.92-4.03-5.57-4.06-5.15-5.52-7.45-4.63-11.16.88-3.71 3.21-5.1 9.16-7.86 1.91-.89 4.02-1.9 6.12-3.16 4.9-2.91 9.71-7.24 11.61-15.2 1.9-7.95-.45-13.99-3.5-18.79-1.31-2.07-2.74-3.93-4.04-5.58-4.06-5.14-5.51-7.44-4.63-11.14.89-3.7 3.21-5.09 9.16-7.84 1.91-.88 4.02-1.9 6.12-3.15 4.9-2.91 9.71-7.23 11.61-15.18-.51-.12-3.02-.72-7.56-1.81-4.53-1.07-7.05-1.67-7.55-1.79-.88 3.7-3.21 5.09-9.16 7.84-6.33 2.94-15.01 6.96-17.73 18.33-2.71 11.38 3.21 18.89 7.54 24.37 4.06 5.15 5.51 7.44 4.63 11.14-.89 3.71-3.22 5.11-9.17 7.87-6.33 2.94-15.01 6.97-17.73 18.35-2.71 11.37 3.21 18.89 7.54 24.38 4.07 5.15 5.51 7.45 4.63 11.16l7.55 1.8z" id="i"/><path d="M338.62 52.24" id="j"/><path d="M437.36 124.69c2.7 2.69 2.67 5.41 1.9 11.92-.24 2.09-.48 4.42-.52 6.87-.08 5.69 1.08 12.07 6.87 17.85 5.78 5.78 12.16 6.94 17.85 6.86 2.44-.04 4.78-.28 6.86-.53 6.51-.76 9.22-.8 11.92 1.9 2.69 2.69 2.65 5.4 1.89 11.9-.25 2.09-.49 4.42-.53 6.87-.09 5.69 1.07 12.06 6.86 17.84.36-.37 2.19-2.2 5.49-5.5 3.3-3.29 5.13-5.12 5.49-5.49-2.68-2.69-2.65-5.4-1.88-11.9.82-6.94 1.94-16.44-6.33-24.7-8.26-8.27-17.78-7.15-24.71-6.35-6.51.77-9.22.8-11.92-1.89-2.7-2.7-2.66-5.42-1.9-11.93.81-6.94 1.92-16.45-6.35-24.72s-17.77-7.15-24.72-6.34c-6.51.75-9.22.79-11.93-1.9l-10.98 10.98c5.78 5.78 12.16 6.95 17.85 6.86 2.44-.03 4.78-.27 6.86-.51 6.51-.76 9.22-.8 11.93 1.91z" id="k"/><path d="M495.94 200.68v-.01" id="l"/><path d="M468.14 48.31c2.45 2.45 6.43 2.45 8.89 0 2.45-2.45 2.45-6.43 0-8.89-.82-.81-7.31-7.3-8.13-8.12a6.283 6.283 0 00-8.88 8.89c1.62 1.63 6.49 6.5 8.12 8.12z" id="m"/><path d="M493.55 73.72a6.277 6.277 0 008.89 0c2.45-2.45 2.45-6.43 0-8.89-.82-.81-7.31-7.3-8.12-8.12-2.46-2.45-6.44-2.45-8.89 0a6.277 6.277 0 000 8.89c1.62 1.63 6.49 6.5 8.12 8.12z" id="n"/><path d="M477.03 65.6c2.45-2.45 2.45-6.43 0-8.89-2.46-2.45-6.44-2.45-8.89 0l-8.12 8.12a6.277 6.277 0 000 8.89 6.265 6.265 0 008.88 0c1.63-1.62 7.31-7.31 8.13-8.12z" id="o"/><path d="M502.44 40.19c2.45-2.45 2.45-6.43 0-8.89a6.295 6.295 0 00-8.89 0c-.81.82-7.31 7.31-8.12 8.12a6.277 6.277 0 000 8.89c2.45 2.45 6.43 2.45 8.89 0 1.62-1.62 7.3-7.31 8.12-8.12z" id="p"/><path d="M99.56 120.14a6.295 6.295 0 008.89 0c2.45-2.46 2.45-6.44 0-8.89l-8.12-8.12a6.277 6.277 0 00-8.89 0c-2.45 2.45-2.45 6.43 0 8.89 1.63 1.62 6.5 6.49 8.12 8.12z" id="q"/><path d="M124.97 145.55a6.295 6.295 0 008.89 0 6.295 6.295 0 000-8.89l-8.12-8.12c-2.45-2.45-6.43-2.45-8.89 0-2.45 2.45-2.45 6.43 0 8.89 1.63 1.62 6.5 6.49 8.12 8.12z" id="r"/><path d="M108.45 137.43a6.295 6.295 0 000-8.89 6.295 6.295 0 00-8.89 0l-8.12 8.12c-2.45 2.45-2.45 6.43 0 8.89a6.295 6.295 0 008.89 0c1.62-1.63 7.3-7.31 8.12-8.12z" id="s"/><path d="M133.86 112.02c2.45-2.46 2.45-6.44 0-8.89a6.277 6.277 0 00-8.89 0l-8.12 8.12c-2.45 2.45-2.45 6.43 0 8.89a6.295 6.295 0 008.89 0c1.62-1.63 7.31-7.31 8.12-8.12z" id="t"/><path d="M496.7 254.52h11.48c3.47 0 6.28-2.82 6.28-6.29s-2.81-6.28-6.28-6.28H496.7a6.28 6.28 0 00-6.29 6.28c0 3.47 2.81 6.29 6.29 6.29z" id="u"/><path d="M544.11 254.52c3.47 0 6.28-2.82 6.28-6.29s-2.81-6.28-6.28-6.28h-11.48c-3.47 0-6.28 2.81-6.28 6.28s2.81 6.29 6.28 6.29h11.48z" id="v"/><path d="M526.69 260.45c0-3.47-2.81-6.28-6.28-6.28s-6.29 2.81-6.29 6.28v11.49c0 3.48 2.82 6.29 6.29 6.29s6.28-2.82 6.28-6.29v-11.49z" id="w"/><path d="M526.69 236.01v-11.49c0-3.47-2.81-6.28-6.28-6.28s-6.29 2.81-6.29 6.28v11.49c0 3.47 2.82 6.28 6.29 6.28s6.28-2.81 6.28-6.28z" id="x"/><path d="M275.68 256.12c-.09-2.18.67-4.26 2.14-5.85a8.047 8.047 0 015.64-2.61 8.155 8.155 0 018.47 7.81c.08 2.16-.68 4.24-2.15 5.83a8.115 8.115 0 01-5.67 2.61 6.281 6.281 0 00-6.02 6.53 6.285 6.285 0 006.27 6.03c.09 0 .17-.01.26-.01 11.41-.46 20.32-10.1 19.86-21.5-.46-11.41-10.09-20.33-21.53-19.86a20.54 20.54 0 00-14.38 6.65 20.558 20.558 0 00-5.45 14.87c.14 3.48 3.03 6.15 6.53 6.04 3.47-.14 6.16-3.07 6.03-6.54z" id="y"/><path d="M253.59 79.72c0-14.43-11.74-26.18-26.17-26.18-14.44 0-26.17 11.75-26.17 26.18s11.74 26.17 26.17 26.17c14.43 0 26.17-11.74 26.17-26.17zm-15.54 0c0 5.87-4.77 10.64-10.63 10.64-5.87 0-10.64-4.77-10.64-10.64 0-5.86 4.77-10.64 10.64-10.64 5.86 0 10.63 4.78 10.63 10.64z" id="z"/><path d="M429.25 266.2c0-14.43-11.74-26.17-26.17-26.17-14.44 0-26.17 11.74-26.17 26.17 0 14.43 11.73 26.17 26.17 26.17 14.43 0 26.17-11.74 26.17-26.17zm-15.54 0c0 5.86-4.77 10.63-10.63 10.63-5.87 0-10.64-4.77-10.64-10.63 0-5.87 4.77-10.64 10.64-10.64 5.86 0 10.63 4.77 10.63 10.64z" id="A"/><path d="M448.7 431.73c-28.02 0-50.81 22.79-50.81 50.81h135.58c0-28.02-22.8-50.81-50.81-50.81H448.7z" id="B"/></defs><use xlink:href="#a" fill="#fff"/><use xlink:href="#a" fill-opacity="0" stroke="#000" stroke-opacity="0"/><use xlink:href="#b"/><use xlink:href="#b" fill-opacity="0" stroke="#000"/><use xlink:href="#c" fill="#fff"/><use xlink:href="#c" fill-opacity="0" stroke="#000" stroke-opacity="0"/><use xlink:href="#d" fill="#fff"/><use xlink:href="#d" fill-opacity="0" stroke="#000" stroke-opacity="0"/><use xlink:href="#e" fill="#fff"/><use xlink:href="#e" fill-opacity="0" stroke="#000" stroke-opacity="0"/><use xlink:href="#f" fill="#fff"/><use xlink:href="#f" fill-opacity="0" stroke="#000" stroke-opacity="0"/><use xlink:href="#g" fill="#fff"/><use xlink:href="#g" fill-opacity="0" stroke="#000" stroke-opacity="0"/><use xlink:href="#h" fill="#fff"/><use xlink:href="#h" fill-opacity="0" stroke="#000" stroke-opacity="0"/><use xlink:href="#i" fill="#fff"/><use xlink:href="#i" fill-opacity="0" stroke="#000" stroke-opacity="0"/><use xlink:href="#j" fill="#fff"/><use xlink:href="#j" fill-opacity="0" stroke="#000" stroke-opacity="0"/><use xlink:href="#k" fill="#fff"/><use xlink:href="#k" fill-opacity="0" stroke="#000" stroke-opacity="0"/><use xlink:href="#l" fill="#fff"/><use xlink:href="#l" fill-opacity="0" stroke="#000" stroke-opacity="0"/><use xlink:href="#m" fill="#fff"/><use xlink:href="#m" fill-opacity="0" stroke="#000" stroke-opacity="0"/><use xlink:href="#n" fill="#fff"/><use xlink:href="#n" fill-opacity="0" stroke="#000" stroke-opacity="0"/><g><use xlink:href="#o" fill="#fff"/><use xlink:href="#o" fill-opacity="0" stroke="#000" stroke-opacity="0"/></g><g><use xlink:href="#p" fill="#fff"/><use xlink:href="#p" fill-opacity="0" stroke="#000" stroke-opacity="0"/></g><g><use xlink:href="#q" fill="#fff"/><use xlink:href="#q" fill-opacity="0" stroke="#000" stroke-opacity="0"/></g><g><use xlink:href="#r" fill="#fff"/><use xlink:href="#r" fill-opacity="0" stroke="#000" stroke-opacity="0"/></g><g><use xlink:href="#s" fill="#fff"/><use xlink:href="#s" fill-opacity="0" stroke="#000" stroke-opacity="0"/></g><g><use xlink:href="#t" fill="#fff"/><use xlink:href="#t" fill-opacity="0" stroke="#000" stroke-opacity="0"/></g><g><use xlink:href="#u" fill="#fff"/><use xlink:href="#u" fill-opacity="0" stroke="#000" stroke-opacity="0"/></g><g><use xlink:href="#v" fill="#fff"/><use xlink:href="#v" fill-opacity="0" stroke="#000" stroke-opacity="0"/></g><g><use xlink:href="#w" fill="#fff"/><use xlink:href="#w" fill-opacity="0" stroke="#000" stroke-opacity="0"/></g><g><use xlink:href="#x" fill="#fff"/><use xlink:href="#x" fill-opacity="0" stroke="#000" stroke-opacity="0"/></g><g><use xlink:href="#y" fill="#fff"/><use xlink:href="#y" fill-opacity="0" stroke="#000" stroke-opacity="0"/></g><g><use xlink:href="#z" fill="#fff"/><use xlink:href="#z" fill-opacity="0" stroke="#000" stroke-opacity="0"/></g><g><use xlink:href="#A" fill="#fff"/><use xlink:href="#A" fill-opacity="0" stroke="#000" stroke-opacity="0"/></g><g><use xlink:href="#B" fill="#fff"/><use xlink:href="#B" fill-opacity="0" stroke="#000" stroke-opacity="0"/></g></svg>